<?xml version="1.0" encoding="UTF-8"?>
<!DOCTYPE svg PUBLIC "-//W3C//DTD SVG 1.1//EN" "http://www.w3.org/Graphics/SVG/1.1/DTD/svg11.dtd">
<svg version="1.2" width="25.33mm" height="22.18mm" viewBox="4053 7826 2533 2218" preserveAspectRatio="xMidYMid" fill-rule="evenodd" stroke-width="28.222" stroke-linejoin="round" xmlns="http://www.w3.org/2000/svg" xmlns:ooo="http://xml.openoffice.org/svg/export" xmlns:xlink="http://www.w3.org/1999/xlink" xmlns:presentation="http://sun.com/xmlns/staroffice/presentation" xmlns:smil="http://www.w3.org/2001/SMIL20/" xmlns:anim="urn:oasis:names:tc:opendocument:xmlns:animation:1.0" xmlns:svg="urn:oasis:names:tc:opendocument:xmlns:svg-compatible:1.0" xml:space="preserve">
 <defs class="EmbeddedBulletChars">
  <g id="bullet-char-template-57356" transform="scale(0.00048828125,-0.00048828125)">
   <path d="M 580,1141 L 1163,571 580,0 -4,571 580,1141 Z"/>
  </g>
  <g id="bullet-char-template-57354" transform="scale(0.00048828125,-0.00048828125)">
   <path d="M 8,1128 L 1137,1128 1137,0 8,0 8,1128 Z"/>
  </g>
  <g id="bullet-char-template-10146" transform="scale(0.00048828125,-0.00048828125)">
   <path d="M 174,0 L 602,739 174,1481 1456,739 174,0 Z M 1358,739 L 309,1346 659,739 1358,739 Z"/>
  </g>
  <g id="bullet-char-template-10132" transform="scale(0.00048828125,-0.00048828125)">
   <path d="M 2015,739 L 1276,0 717,0 1260,543 174,543 174,936 1260,936 717,1481 1274,1481 2015,739 Z"/>
  </g>
  <g id="bullet-char-template-10007" transform="scale(0.00048828125,-0.00048828125)">
   <path d="M 0,-2 C -7,14 -16,27 -25,37 L 356,567 C 262,823 215,952 215,954 215,979 228,992 255,992 264,992 276,990 289,987 310,991 331,999 354,1012 L 381,999 492,748 772,1049 836,1024 860,1049 C 881,1039 901,1025 922,1006 886,937 835,863 770,784 769,783 710,716 594,584 L 774,223 C 774,196 753,168 711,139 L 727,119 C 717,90 699,76 672,76 641,76 570,178 457,381 L 164,-76 C 142,-110 111,-127 72,-127 30,-127 9,-110 8,-76 1,-67 -2,-52 -2,-32 -2,-23 -1,-13 0,-2 Z"/>
  </g>
  <g id="bullet-char-template-10004" transform="scale(0.00048828125,-0.00048828125)">
   <path d="M 285,-33 C 182,-33 111,30 74,156 52,228 41,333 41,471 41,549 55,616 82,672 116,743 169,778 240,778 293,778 328,747 346,684 L 369,508 C 377,444 397,411 428,410 L 1163,1116 C 1174,1127 1196,1133 1229,1133 1271,1133 1292,1118 1292,1087 L 1292,965 C 1292,929 1282,901 1262,881 L 442,47 C 390,-6 338,-33 285,-33 Z"/>
  </g>
  <g id="bullet-char-template-9679" transform="scale(0.00048828125,-0.00048828125)">
   <path d="M 813,0 C 632,0 489,54 383,161 276,268 223,411 223,592 223,773 276,916 383,1023 489,1130 632,1184 813,1184 992,1184 1136,1130 1245,1023 1353,916 1407,772 1407,592 1407,412 1353,268 1245,161 1136,54 992,0 813,0 Z"/>
  </g>
  <g id="bullet-char-template-8226" transform="scale(0.00048828125,-0.00048828125)">
   <path d="M 346,457 C 273,457 209,483 155,535 101,586 74,649 74,723 74,796 101,859 155,911 209,963 273,989 346,989 419,989 480,963 531,910 582,859 608,796 608,723 608,648 583,586 532,535 482,483 420,457 346,457 Z"/>
  </g>
  <g id="bullet-char-template-8211" transform="scale(0.00048828125,-0.00048828125)">
   <path d="M -4,459 L 1135,459 1135,606 -4,606 -4,459 Z"/>
  </g>
  <g id="bullet-char-template-61548" transform="scale(0.00048828125,-0.00048828125)">
   <path d="M 173,740 C 173,903 231,1043 346,1159 462,1274 601,1332 765,1332 928,1332 1067,1274 1183,1159 1299,1043 1357,903 1357,740 1357,577 1299,437 1183,322 1067,206 928,148 765,148 601,148 462,206 346,322 231,437 173,577 173,740 Z"/>
  </g>
 </defs>
 <g class="Page">
  <g class="com.sun.star.drawing.CustomShape">
   <g id="id3">
    <rect class="BoundingBox" stroke="none" fill="none" x="4053" y="7826" width="2533" height="2218"/>
    <path fill="rgb(255,255,255)" stroke="none" d="M 4554,7826 L 4554,7826 C 4466,7826 4380,7849 4304,7893 4228,7937 4165,8000 4121,8076 4077,8152 4054,8238 4054,8326 L 4054,9543 4054,9543 C 4054,9631 4077,9717 4121,9793 4165,9869 4228,9932 4304,9976 4380,10020 4466,10043 4554,10043 L 6085,10043 6085,10043 C 6173,10043 6259,10020 6335,9976 6411,9932 6474,9869 6518,9793 6562,9717 6585,9631 6585,9543 L 6585,8326 6585,8326 6585,8326 C 6585,8238 6562,8152 6518,8076 6474,8000 6411,7937 6335,7893 6259,7849 6173,7826 6085,7826 L 4554,7826 Z"/>
   </g>
  </g>
  <g class="Group">
   <g class="com.sun.star.drawing.PolyPolygonShape">
    <g id="id4">
     <rect class="BoundingBox" stroke="none" fill="none" x="4546" y="8269" width="1539" height="522"/>
     <path fill="none" stroke="rgb(0,80,133)" stroke-width="106" stroke-linejoin="round" stroke-linecap="round" d="M 5303,8323 L 6030,8529 5303,8737 4600,8530 5303,8323 Z"/>
    </g>
   </g>
   <g class="com.sun.star.drawing.PolyLineShape">
    <g id="id5">
     <rect class="BoundingBox" stroke="none" fill="none" x="4438" y="8477" width="1647" height="581"/>
     <path fill="none" stroke="rgb(0,80,133)" stroke-width="106" stroke-linejoin="round" stroke-linecap="round" d="M 4601,8531 L 4601,8531 4596,8532 4590,8533 4585,8535 4580,8537 4575,8539 4570,8541 4565,8543 4561,8546 4553,8550 4546,8556 4539,8561 4532,8567 4526,8574 4521,8581 4516,8588 4511,8596 4507,8604 4503,8612 4500,8620 4497,8629 4495,8638 4493,8647 4492,8656 4492,8665 4492,8674 4493,8682 4495,8691 4497,8700 4500,8708 4503,8716 4507,8725 4511,8733 4516,8740 4521,8748 4526,8754 4532,8761 4539,8767 4546,8773 4553,8778 4561,8783 4564,8784 4567,8786 4573,8789 4580,8792 4587,8795 5303,9003 6030,8797"/>
    </g>
   </g>
   <g class="com.sun.star.drawing.PolyLineShape">
    <g id="id6">
     <rect class="BoundingBox" stroke="none" fill="none" x="4438" y="8746" width="1647" height="582"/>
     <path fill="none" stroke="rgb(0,80,133)" stroke-width="106" stroke-linejoin="round" stroke-linecap="round" d="M 4601,8800 L 4601,8800 4596,8801 4590,8802 4585,8804 4580,8806 4575,8808 4570,8810 4565,8813 4561,8816 4553,8820 4546,8825 4539,8831 4532,8837 4526,8844 4521,8851 4516,8858 4511,8866 4507,8873 4503,8882 4500,8890 4497,8898 4495,8907 4493,8916 4492,8924 4492,8934 4492,8943 4493,8952 4495,8961 4497,8969 4500,8978 4503,8986 4507,8994 4511,9002 4516,9010 4521,9017 4526,9024 4532,9031 4539,9037 4546,9043 4553,9048 4561,9052 4564,9054 4567,9056 4573,9059 4580,9062 4587,9064 5303,9273 6030,9066"/>
    </g>
   </g>
   <g class="com.sun.star.drawing.PolyLineShape">
    <g id="id7">
     <rect class="BoundingBox" stroke="none" fill="none" x="4438" y="9019" width="1647" height="582"/>
     <path fill="none" stroke="rgb(0,80,133)" stroke-width="106" stroke-linejoin="round" stroke-linecap="round" d="M 4601,9072 L 4601,9072 4596,9074 4590,9075 4585,9077 4580,9078 4575,9080 4570,9083 4565,9085 4561,9087 4553,9092 4546,9098 4539,9103 4532,9110 4526,9116 4521,9123 4516,9131 4511,9138 4507,9146 4503,9154 4500,9163 4497,9171 4495,9180 4493,9189 4492,9197 4492,9206 4492,9215 4493,9224 4495,9233 4497,9242 4500,9251 4503,9259 4507,9267 4511,9275 4516,9283 4521,9290 4526,9297 4532,9304 4539,9310 4546,9315 4553,9321 4561,9325 4564,9327 4567,9329 4570,9330 4573,9332 4580,9334 4587,9336 5303,9546 6030,9338"/>
    </g>
   </g>
  </g>
 </g>
</svg>