<?xml version="1.0" encoding="UTF-8"?>
<!DOCTYPE svg PUBLIC "-//W3C//DTD SVG 1.1//EN" "http://www.w3.org/Graphics/SVG/1.1/DTD/svg11.dtd">
<svg version="1.2" width="25.32mm" height="22.18mm" viewBox="4035 3423 2532 2218" preserveAspectRatio="xMidYMid" fill-rule="evenodd" stroke-width="28.222" stroke-linejoin="round" xmlns="http://www.w3.org/2000/svg" xmlns:ooo="http://xml.openoffice.org/svg/export" xmlns:xlink="http://www.w3.org/1999/xlink" xmlns:presentation="http://sun.com/xmlns/staroffice/presentation" xmlns:smil="http://www.w3.org/2001/SMIL20/" xmlns:anim="urn:oasis:names:tc:opendocument:xmlns:animation:1.0" xmlns:svg="urn:oasis:names:tc:opendocument:xmlns:svg-compatible:1.0" xml:space="preserve">
 <defs class="EmbeddedBulletChars">
  <g id="bullet-char-template-57356" transform="scale(0.00048828125,-0.00048828125)">
   <path d="M 580,1141 L 1163,571 580,0 -4,571 580,1141 Z"/>
  </g>
  <g id="bullet-char-template-57354" transform="scale(0.00048828125,-0.00048828125)">
   <path d="M 8,1128 L 1137,1128 1137,0 8,0 8,1128 Z"/>
  </g>
  <g id="bullet-char-template-10146" transform="scale(0.00048828125,-0.00048828125)">
   <path d="M 174,0 L 602,739 174,1481 1456,739 174,0 Z M 1358,739 L 309,1346 659,739 1358,739 Z"/>
  </g>
  <g id="bullet-char-template-10132" transform="scale(0.00048828125,-0.00048828125)">
   <path d="M 2015,739 L 1276,0 717,0 1260,543 174,543 174,936 1260,936 717,1481 1274,1481 2015,739 Z"/>
  </g>
  <g id="bullet-char-template-10007" transform="scale(0.00048828125,-0.00048828125)">
   <path d="M 0,-2 C -7,14 -16,27 -25,37 L 356,567 C 262,823 215,952 215,954 215,979 228,992 255,992 264,992 276,990 289,987 310,991 331,999 354,1012 L 381,999 492,748 772,1049 836,1024 860,1049 C 881,1039 901,1025 922,1006 886,937 835,863 770,784 769,783 710,716 594,584 L 774,223 C 774,196 753,168 711,139 L 727,119 C 717,90 699,76 672,76 641,76 570,178 457,381 L 164,-76 C 142,-110 111,-127 72,-127 30,-127 9,-110 8,-76 1,-67 -2,-52 -2,-32 -2,-23 -1,-13 0,-2 Z"/>
  </g>
  <g id="bullet-char-template-10004" transform="scale(0.00048828125,-0.00048828125)">
   <path d="M 285,-33 C 182,-33 111,30 74,156 52,228 41,333 41,471 41,549 55,616 82,672 116,743 169,778 240,778 293,778 328,747 346,684 L 369,508 C 377,444 397,411 428,410 L 1163,1116 C 1174,1127 1196,1133 1229,1133 1271,1133 1292,1118 1292,1087 L 1292,965 C 1292,929 1282,901 1262,881 L 442,47 C 390,-6 338,-33 285,-33 Z"/>
  </g>
  <g id="bullet-char-template-9679" transform="scale(0.00048828125,-0.00048828125)">
   <path d="M 813,0 C 632,0 489,54 383,161 276,268 223,411 223,592 223,773 276,916 383,1023 489,1130 632,1184 813,1184 992,1184 1136,1130 1245,1023 1353,916 1407,772 1407,592 1407,412 1353,268 1245,161 1136,54 992,0 813,0 Z"/>
  </g>
  <g id="bullet-char-template-8226" transform="scale(0.00048828125,-0.00048828125)">
   <path d="M 346,457 C 273,457 209,483 155,535 101,586 74,649 74,723 74,796 101,859 155,911 209,963 273,989 346,989 419,989 480,963 531,910 582,859 608,796 608,723 608,648 583,586 532,535 482,483 420,457 346,457 Z"/>
  </g>
  <g id="bullet-char-template-8211" transform="scale(0.00048828125,-0.00048828125)">
   <path d="M -4,459 L 1135,459 1135,606 -4,606 -4,459 Z"/>
  </g>
  <g id="bullet-char-template-61548" transform="scale(0.00048828125,-0.00048828125)">
   <path d="M 173,740 C 173,903 231,1043 346,1159 462,1274 601,1332 765,1332 928,1332 1067,1274 1183,1159 1299,1043 1357,903 1357,740 1357,577 1299,437 1183,322 1067,206 928,148 765,148 601,148 462,206 346,322 231,437 173,577 173,740 Z"/>
  </g>
 </defs>
 <g class="Page">
  <g class="com.sun.star.drawing.CustomShape">
   <g id="id3">
    <rect class="BoundingBox" stroke="none" fill="none" x="4035" y="3423" width="2532" height="2218"/>
    <path fill="rgb(0,80,133)" stroke="none" d="M 4535,3423 L 4535,3423 C 4447,3423 4361,3446 4285,3490 4209,3534 4146,3597 4102,3673 4058,3749 4035,3835 4035,3923 L 4035,5140 4035,5140 C 4035,5228 4058,5314 4102,5390 4146,5466 4209,5529 4285,5573 4361,5617 4447,5640 4535,5640 L 6066,5640 6066,5640 C 6154,5640 6240,5617 6316,5573 6392,5529 6455,5466 6499,5390 6543,5314 6566,5228 6566,5140 L 6566,3923 6566,3923 6566,3923 C 6566,3835 6543,3749 6499,3673 6455,3597 6392,3534 6316,3490 6240,3446 6154,3423 6066,3423 L 4535,3423 Z"/>
   </g>
  </g>
  <g class="Group">
   <g class="com.sun.star.drawing.PolyPolygonShape">
    <g id="id4">
     <rect class="BoundingBox" stroke="none" fill="none" x="4527" y="3866" width="1539" height="522"/>
     <path fill="none" stroke="rgb(255,255,255)" stroke-width="106" stroke-linejoin="round" stroke-linecap="round" d="M 5284,3920 L 6011,4126 5284,4334 4581,4127 5284,3920 Z"/>
    </g>
   </g>
   <g class="com.sun.star.drawing.PolyLineShape">
    <g id="id5">
     <rect class="BoundingBox" stroke="none" fill="none" x="4419" y="4074" width="1647" height="581"/>
     <path fill="none" stroke="rgb(255,255,255)" stroke-width="106" stroke-linejoin="round" stroke-linecap="round" d="M 4582,4128 L 4582,4128 4577,4129 4571,4130 4566,4132 4561,4134 4556,4136 4551,4138 4546,4140 4542,4143 4534,4147 4527,4153 4520,4158 4513,4164 4507,4171 4502,4178 4497,4185 4492,4193 4488,4201 4484,4209 4481,4217 4478,4226 4476,4235 4474,4244 4473,4253 4473,4262 4473,4271 4474,4279 4476,4288 4478,4297 4481,4305 4484,4313 4488,4322 4492,4330 4497,4337 4502,4345 4507,4351 4513,4358 4520,4364 4527,4370 4534,4375 4542,4380 4545,4381 4548,4383 4554,4386 4561,4389 4568,4392 5284,4600 6011,4394"/>
    </g>
   </g>
   <g class="com.sun.star.drawing.PolyLineShape">
    <g id="id6">
     <rect class="BoundingBox" stroke="none" fill="none" x="4419" y="4343" width="1647" height="582"/>
     <path fill="none" stroke="rgb(255,255,255)" stroke-width="106" stroke-linejoin="round" stroke-linecap="round" d="M 4582,4397 L 4582,4397 4577,4398 4571,4399 4566,4401 4561,4403 4556,4405 4551,4407 4546,4410 4542,4413 4534,4417 4527,4422 4520,4428 4513,4434 4507,4441 4502,4448 4497,4455 4492,4463 4488,4470 4484,4479 4481,4487 4478,4495 4476,4504 4474,4513 4473,4521 4473,4531 4473,4540 4474,4549 4476,4558 4478,4566 4481,4575 4484,4583 4488,4591 4492,4599 4497,4607 4502,4614 4507,4621 4513,4628 4520,4634 4527,4640 4534,4645 4542,4649 4545,4651 4548,4653 4554,4656 4561,4659 4568,4661 5284,4870 6011,4663"/>
    </g>
   </g>
   <g class="com.sun.star.drawing.PolyLineShape">
    <g id="id7">
     <rect class="BoundingBox" stroke="none" fill="none" x="4419" y="4616" width="1647" height="582"/>
     <path fill="none" stroke="rgb(255,255,255)" stroke-width="106" stroke-linejoin="round" stroke-linecap="round" d="M 4582,4669 L 4582,4669 4577,4671 4571,4672 4566,4674 4561,4675 4556,4677 4551,4680 4546,4682 4542,4684 4534,4689 4527,4695 4520,4700 4513,4707 4507,4713 4502,4720 4497,4728 4492,4735 4488,4743 4484,4751 4481,4760 4478,4768 4476,4777 4474,4786 4473,4794 4473,4803 4473,4812 4474,4821 4476,4830 4478,4839 4481,4848 4484,4856 4488,4864 4492,4872 4497,4880 4502,4887 4507,4894 4513,4901 4520,4907 4527,4912 4534,4918 4542,4922 4545,4924 4548,4926 4551,4927 4554,4929 4561,4931 4568,4933 5284,5143 6011,4935"/>
    </g>
   </g>
  </g>
 </g>
</svg>